<svg data-v-0dd9719b="" version="1.0" xmlns="http://www.w3.org/2000/svg" xmlns:xlink="http://www.w3.org/1999/xlink" width="100%" height="100%" viewBox="0 0 340.000000 250.000000" preserveAspectRatio="xMidYMid meet" color-interpolation-filters="sRGB" style="margin: auto;"> <rect data-v-0dd9719b="" x="0" y="0" width="100%" height="100%" fill="#feffff" fill-opacity="1" class="background"></rect> <rect data-v-0dd9719b="" x="0" y="0" width="100%" height="100%" fill="url(#watermark)" fill-opacity="1" class="watermarklayer"></rect> <g data-v-0dd9719b="" fill="#166a8f" class="icon-text-wrapper icon-svg-group iconsvg" transform="translate(52.58000183105469,95)"><g fill="#166a8f" class="iconsvg-imagesvg icon_container" transform="translate(0,0)"><rect fill="#166a8f" fill-opacity="0" stroke-width="2" x="0" y="0" width="59.99999999999999" height="59.99999999999999" class="image-rect"></rect> <svg viewBox="0 0 60 60" x="0" y="0" width="59.99999999999999" height="59.99999999999999" class="image-svg-svg bn" style="overflow: visible;"><g hollow-target=""><g><svg fill="#000000" xmlns="http://www.w3.org/2000/svg" viewBox="5 5 90 90" x="0" y="0" style="overflow: visible;" width="60" height="60" filtersec="colorsf2034577635" filter="url(#2XNWxUu-d8ygHOWKl3sr4)"><g transform="scale(1, 1) skewX(0)"><path d="M 5,5.000003 5,95 l 90,0 0,-89.999997 -90,0 z m 3,3 84,0 L 92,92 8,92 8,8.000003 z" color="#000"></path></g><defs><filter id="2XNWxUu-d8ygHOWKl3sr4"><feColorMatrix type="matrix" values="0 0 0 0 0.0859375  0 0 0 0 0.4140625  0 0 0 0 0.55859375  0 0 0 1 0"></feColorMatrix></filter></defs></svg></g> <g filter="url(#colors6662888788)"><svg xmlns="http://www.w3.org/2000/svg" xmlns:xlink="http://www.w3.org/1999/xlink" viewBox="0 0 41.0625 53.4375" width="45" height="45" x="7.5" y="7.5" class="image-svg-letter"><path transform="translate(-1.828125 53.4375)" d="M35.65-2.95L39.09-15.26L42.89-15.26L42.47 0L1.83 0L1.83-3.02L31.01-50.41L10.20-50.41L6.96-38.53L2.74-38.53L3.52-53.44L42.05-53.44L42.05-50.27L12.73-2.95L35.65-2.95Z"></path></svg></g></g></svg> <defs><filter id="colors6662888788"><feColorMatrix type="matrix" values="0 0 0 0 0.0859375  0 0 0 0 0.4140625  0 0 0 0 0.55859375  0 0 0 1 0" class="icon-fecolormatrix"></feColorMatrix></filter> <filter id="colorsf2034577635"><feColorMatrix type="matrix" values="0 0 0 0 0.99609375  0 0 0 0 0.99609375  0 0 0 0 0.99609375  0 0 0 1 0" class="icon-fecolormatrix"></feColorMatrix></filter> <filter id="colorsb1953401176"><feColorMatrix type="matrix" values="0 0 0 0 0  0 0 0 0 0  0 0 0 0 0  0 0 0 1 0" class="icon-fecolormatrix"></feColorMatrix></filter></defs></g> <g transform="translate(67,2.4137496948242188)"><g data-gra="path-name" fill-rule="" class="tp-name iconsvg-namesvg" transform="translate(0,0)"><g transform="scale(1)"><g><path d="M4.81-35.57L4.81-35.57 5.19-35.9Q10.87-34.45 12.12-31.21L12.12-31.21Q12.87-29.14 11.62-27.72L11.62-27.72Q10.5-26.48 9.01-27.23L9.01-27.23Q8.51-27.48 8.09-27.93L8.09-27.93Q7.1-33 4.81-35.57ZM29.43-6.97L32.95-6.97Q35.28-6.97 35.28-9.79L35.28-9.79Q35.28-14.98 30.71-19.26L30.71-19.26Q32.54-24.07 34.07-31.17L34.07-31.17 29.43-31.17 29.43-6.97ZM33.78-32.37L36.52-34.99 41.5-30.34Q41.05-29.76 39.51-29.76L39.51-29.76Q35.53-23.41 31.83-19.38L31.83-19.38Q35.9-17.27 37.96-14.28 40.01-11.29 40.01-8.3L40.01-8.3Q40.01-1.37 32.46-1.25L32.46-1.25Q32.46-4.44 31.83-5.23L31.83-5.23Q31.21-6.06 29.43-6.43L29.43-6.43 29.43 2.2Q29.43 2.41 28.97 2.76 28.51 3.11 27.5 3.44 26.48 3.78 25.32 3.78L25.32 3.78 24.45 3.78 24.45-16.02Q24.16-15.9 23.7-15.9L23.7-15.9 14.32-15.9Q14.19-14.07 13.74-11.7L13.74-11.7Q20.25-9.26 22.12-5.27L22.12-5.27Q23.28-2.74 22.08-1.08L22.08-1.08Q21 0.37 19.09-0.37L19.09-0.37Q18.64-0.58 18.14-0.91L18.14-0.91Q17.1-4.81 13.32-10L13.32-10Q10.63-0.95 1.29 3.61L1.29 3.61 0.91 3.24Q8.72-3.74 9.42-15.9L9.42-15.9 1.91-15.9 1.58-17.1 9.46-17.1Q9.5-17.85 9.5-19.38L9.5-19.38 9.5-25.03 3.2-25.03 2.86-26.27 13.41-26.27Q15.19-31.21 16.35-36.4L16.35-36.4 22.58-34.24Q22.29-33.37 20.96-33.49L20.96-33.49Q17.43-29.14 14.4-26.27L14.4-26.27 16.77-26.27 19.26-29.63Q22-27.35 23.7-25.73L23.7-25.73Q23.49-25.03 22.54-25.03L22.54-25.03 14.44-25.03 14.44-19.38Q14.44-17.89 14.4-17.1L14.4-17.1 17.64-17.1 20.25-20.96Q22.7-18.76 24.45-17.06L24.45-17.06 24.45-34.95 30.01-32.37 33.78-32.37ZM48.19-25.77L48.19-25.77 48.81-25.82Q50.1-22.83 50.34-20.19 50.59-17.56 50.1-15.9 49.6-14.24 48.6-13.07L48.6-13.07Q47.6-11.95 46.15-11.99 44.7-12.04 43.99-13.2L43.99-13.2Q42.83-15.31 45.07-16.98L45.07-16.98Q46.44-18.14 47.42-20.61 48.39-23.08 48.19-25.77ZM51.8-18.14L51.8-34.86 58.15-34.24Q57.94-33.24 56.57-33.04L56.57-33.04 56.57-18.1Q56.53-14.48 55.97-11.48 55.41-8.47 54.12-5.54 52.83-2.61 50.45-0.25 48.06 2.12 44.62 3.82L44.62 3.82 44.24 3.4Q48.52-0.5 50.16-5.81 51.8-11.12 51.8-18.14L51.8-18.14ZM75.45-17.22L75.45-34.95 81.85-34.24Q81.72-33.29 80.31-33.08L80.31-33.08 80.31 1.99Q80.31 2.45 78.98 3.07 77.65 3.69 76.37 3.69L76.37 3.69 75.45 3.69 75.45-15.31Q75.08-13.7 73.75-13.24 72.42-12.78 70.93-14.15L70.93-14.15Q70.97-18.3 68.07-23.57L68.07-23.57 68.07 1.41Q68.07 1.83 66.76 2.45 65.45 3.07 64.21 3.07L64.21 3.07 63.29 3.07 63.29-14.78Q62.67-13.53 61.45-13.34 60.22-13.16 58.89-14.4L58.89-14.4Q59.14-18.68 56.74-23.7L56.74-23.7 57.15-23.86Q62.09-21.58 63.29-18.34L63.29-18.34 63.29-34.28 69.56-33.62Q69.44-32.62 68.07-32.41L68.07-32.41 68.07-23.78 68.44-23.99Q71.68-22.58 73.38-20.79 75.08-19.01 75.45-17.22L75.45-17.22ZM88.94-35.03L88.94-35.03 89.27-35.32Q95.29-35.28 97.16-32.54L97.16-32.54Q98.28-30.92 97.33-29.47L97.33-29.47Q96.46-28.06 94.63-28.51L94.63-28.51Q94.3-28.6 93.92-28.76L93.92-28.76Q93.34-30.3 91.91-32.02 90.48-33.74 88.94-35.03ZM87.08-26.23L87.08-26.23 87.41-26.52Q93.55-26.69 95.54-23.95L95.54-23.95Q96.75-22.37 95.87-20.88L95.87-20.88Q95-19.42 93.18-19.8L93.18-19.8Q92.76-19.88 92.39-20.05L92.39-20.05Q91.68-21.62 90.17-23.35 88.65-25.07 87.08-26.23ZM118.41-9.84L118.41-12.87 113.72-12.87Q113.31-9.21 111.04-6.52 108.78-3.82 103.47-2.03L103.47-2.03Q105.59-1.83 109.9-1.83L109.9-1.83Q121.19-1.83 126.5-1.99L126.5-1.99 126.5-1.49Q123.6-0.83 123.23 2.74L123.23 2.74 109.99 2.74Q103.76 2.74 100.85 1.33 97.95-0.08 95.83-4.4L95.83-4.4Q93.22-0.91 89.77 2.61L89.77 2.61Q89.77 3.32 89.07 3.69L89.07 3.69 86.41-1.83Q87.08-2.03 91.64-3.78L91.64-3.78 91.64-13.32 86.58-13.32 86.33-14.53 90.98-14.53 93.38-17.64 98.53-13.57Q97.91-12.87 96.29-12.66L96.29-12.66 96.29-5.1Q97.7-3.74 99.26-3.03 100.81-2.32 103.1-2.08L103.1-2.08 102.85-2.37Q106.04-4.32 107.41-6.87 108.78-9.42 109.07-12.87L109.07-12.87 104.88-12.87 104.88-10.79Q104.88-10.46 103.57-10 102.27-9.55 100.98-9.55L100.98-9.55 100.23-9.55 100.23-24.24 106.46-23.66Q106.33-22.7 104.88-22.5L104.88-22.5 104.88-14.11 109.16-14.11Q109.2-14.73 109.2-16.06L109.2-16.06 109.2-26.81 98.24-26.81 97.91-28.06 105.83-28.06Q105.17-28.31 104.76-28.68L104.76-28.68Q104.63-32.25 102.06-35.78L102.06-35.78 102.43-36.03Q106.21-35.15 107.91-33.39 109.61-31.63 109.36-30.13 109.11-28.64 107.79-28.06L107.79-28.06 113.6-28.06 113.39-28.18Q114.3-30.8 115.46-36.23L115.46-36.23 122.1-33.95Q121.81-33.12 120.44-33.16L120.44-33.16Q117.46-30.17 114.34-28.06L114.34-28.06 119.28-28.06 121.9-31.21Q124.72-29.05 126.5-27.52L126.5-27.52Q126.3-26.81 125.34-26.81L125.34-26.81 113.89-26.81 113.89-16.1Q113.89-14.73 113.85-14.11L113.85-14.11 118.41-14.11 118.41-24.24 124.68-23.66Q124.55-22.7 123.14-22.5L123.14-22.5 123.14-11.04Q123.14-10.83 122.56-10.56 121.98-10.29 121.03-10.06 120.07-9.84 119.2-9.84L119.2-9.84 118.41-9.84ZM150.12 0.29L160.08 0.29 163.19-3.65Q166.64-1 168.75 0.79L168.75 0.79Q168.55 1.49 167.55 1.49L167.55 1.49 129.16 1.49 128.83 0.29 144.64 0.29 144.64-35.53 151.7-34.86Q151.49-33.87 150.12-33.66L150.12-33.66 150.12-19.42 157.09-19.42 160.12-23.33Q163.57-20.75 165.6-18.93L165.6-18.93Q165.39-18.22 164.44-18.22L164.44-18.22 150.12-18.22 150.12 0.29Z" transform="translate(-0.9100000262260437, 36.400001525878906)"></path></g> <!----> <!----> <!----> <!----> <!----> <!----> <!----></g></g> <g data-gra="path-slogan" fill-rule="" class="tp-slogan iconsvg-slogansvg" fill="#166a8f" transform="translate(5,47.220001220703125)"><rect x="0" height="1" y="3.9750003814697266" width="9.779998779296875"></rect> <rect height="1" y="3.9750003814697266" width="9.779998779296875" x="148.05999755859375"></rect> <g transform="translate(12.779998779296875,0)"><g transform="scale(1)"><path d="M1.73-1.03L7.03-1.03L7.03 0L0.28 0L0.28-0.94L5.53-7.59L0.66-7.59L0.66-8.58L7.03-8.58L7.03-7.59L1.73-1.03ZM9.33-5.06L13.83-5.06L13.83-8.58L15-8.58L15 0L13.83 0L13.83-3.98L9.33-3.98L9.33 0L8.16 0L8.16-8.58L9.33-8.58L9.33-5.06ZM18.09-1.03L23.25-1.03L23.25 0L16.92 0L16.92-8.58L23.16-8.58L23.16-7.59L18.09-7.59L18.09-4.92L22.78-4.92L22.78-3.89L18.09-3.89L18.09-1.03ZM26.16-8.58L30.47-1.64L30.47-8.58L31.59-8.58L31.59 0L30.28 0L25.92-6.94L25.88-6.94L25.88 0L24.75 0L24.75-8.58L26.16-8.58ZM39.80-3.61L37.17-3.61L37.17-4.59L40.92-4.59L40.92 0L40.17 0L39.89-1.08Q38.91 0.09 37.08 0.14L37.08 0.14Q35.34 0.14 34.41-0.75L34.41-0.75Q33-2.06 33.05-4.36L33.05-4.36Q33.38-8.63 37.13-8.81L37.13-8.81Q40.31-8.63 40.78-6L40.78-6L39.66-6Q39.19-7.78 37.08-7.83L37.08-7.83Q34.41-7.64 34.27-4.31L34.27-4.31Q34.27-0.75 37.13-0.75L37.13-0.75Q38.16-0.75 38.91-1.31L38.91-1.31Q39.84-2.06 39.80-3.61L39.80-3.61ZM43.55-1.03L48.84-1.03L48.84 0L42.09 0L42.09-0.94L47.34-7.59L42.47-7.59L42.47-8.58L48.84-8.58L48.84-7.59L43.55-1.03ZM51.14-5.06L55.64-5.06L55.64-8.58L56.81-8.58L56.81 0L55.64 0L55.64-3.98L51.14-3.98L51.14 0L49.97 0L49.97-8.58L51.14-8.58L51.14-5.06ZM65.39-4.27L65.39-4.27Q65.20-7.64 62.39-7.83L62.39-7.83Q59.53-7.69 59.39-4.27L59.39-4.27Q59.53-0.94 62.39-0.80L62.39-0.80Q65.20-0.98 65.39-4.27ZM66.56-4.27L66.56-4.27Q66.28 0 62.39 0.14L62.39 0.14Q58.45 0 58.17-4.27L58.17-4.27Q58.41-8.72 62.39-8.81L62.39-8.81Q66.28-8.67 66.56-4.27ZM73.59-3.19L73.59-8.58L74.77-8.58L74.77-3.05Q74.63 0.05 71.25 0.14L71.25 0.14Q68.11 0.05 67.97-2.86L67.97-2.86L67.97-8.58L69.14-8.58L69.14-3.19Q69.19-0.84 71.30-0.80L71.30-0.80Q73.59-0.84 73.59-3.19L73.59-3.19ZM81.28-8.58L85.59-1.64L85.59-8.58L86.72-8.58L86.72 0L85.41 0L81.05-6.94L81-6.94L81 0L79.88 0L79.88-8.58L81.28-8.58ZM88.69-8.58L89.86-8.58L89.86 0L88.69 0L88.69-8.58ZM98.11-6.09L98.11-6.09L97.03-6.09Q96.94-7.73 94.88-7.83L94.88-7.83Q92.95-7.78 92.95-6.33L92.95-6.33Q92.95-5.39 93.98-5.25L93.98-5.25L96.42-4.69Q98.34-4.22 98.34-2.34L98.34-2.34Q98.30 0.05 94.97 0.14L94.97 0.14Q93.14 0.14 92.39-0.61L92.39-0.61Q91.45-1.31 91.50-2.77L91.50-2.77L92.63-2.77Q92.67-0.80 94.97-0.75L94.97-0.75Q97.22-0.80 97.27-2.20L97.27-2.20Q97.45-3.38 95.39-3.75L95.39-3.75L93.61-4.13Q91.78-4.64 91.78-6.19L91.78-6.19Q91.92-8.72 94.78-8.81L94.78-8.81Q98.02-8.81 98.11-6.09ZM100.97-5.06L105.47-5.06L105.47-8.58L106.64-8.58L106.64 0L105.47 0L105.47-3.98L100.97-3.98L100.97 0L99.80 0L99.80-8.58L100.97-8.58L100.97-5.06ZM114.09 0L113.25-2.48L109.78-2.48L108.89 0L107.72 0L110.95-8.58L112.27-8.58L115.36 0L114.09 0ZM111.52-7.31L110.16-3.52L112.83-3.52L111.56-7.31L111.52-7.31ZM117.80-8.58L122.11-1.64L122.11-8.58L123.23-8.58L123.23 0L121.92 0L117.56-6.94L117.52-6.94L117.52 0L116.39 0L116.39-8.58L117.80-8.58ZM131.44-3.61L128.81-3.61L128.81-4.59L132.56-4.59L132.56 0L131.81 0L131.53-1.08Q130.55 0.09 128.72 0.14L128.72 0.14Q126.98 0.14 126.05-0.75L126.05-0.75Q124.64-2.06 124.69-4.36L124.69-4.36Q125.02-8.63 128.77-8.81L128.77-8.81Q131.95-8.63 132.42-6L132.42-6L131.30-6Q130.83-7.78 128.72-7.83L128.72-7.83Q126.05-7.64 125.91-4.31L125.91-4.31Q125.91-0.75 128.77-0.75L128.77-0.75Q129.80-0.75 130.55-1.31L130.55-1.31Q131.48-2.06 131.44-3.61L131.44-3.61Z" transform="translate(-0.28125, 8.8125)"></path></g></g></g></g></g><defs v-gra="od"></defs></svg>